<svg width="32" height="32" viewBox="0 0 32 32" fill="none" xmlns="http://www.w3.org/2000/svg">
<g id="figma_logo_thin_icon_171788 1">
<path id="Vector" d="M22.3678 11.7501C23.3261 11.2729 24.0951 10.4859 24.55 9.51684C25.0049 8.54773 25.119 7.45336 24.8738 6.41127C24.6285 5.36918 24.0384 4.44051 23.1991 3.77595C22.3598 3.11138 21.3206 2.7499 20.25 2.75015H11.75C10.6795 2.7499 9.64022 3.11138 8.80092 3.77595C7.96161 4.44051 7.37148 5.36918 7.12626 6.41127C6.88104 7.45336 6.99513 8.54773 7.45001 9.51684C7.90489 10.4859 8.67388 11.2729 9.63221 11.7501C8.84156 12.1435 8.17635 12.7497 7.71135 13.5005C7.24635 14.2513 7 15.1169 7.00001 16.0001C7.00001 16.8832 7.24637 17.7488 7.71138 18.4996C8.17639 19.2504 8.84162 19.8566 9.63227 20.25C8.87507 20.6274 8.23243 21.2002 7.77079 21.9092C7.30915 22.6182 7.04528 23.4376 7.00647 24.2827C6.96765 25.1279 7.1553 25.9681 7.55001 26.7164C7.94472 27.4647 8.53216 28.094 9.25158 28.5392C9.971 28.9844 10.7963 29.2293 11.6421 29.2487C12.4879 29.268 13.3235 29.0611 14.0626 28.6493C14.8016 28.2374 15.4172 27.6357 15.8457 26.9062C16.2742 26.1767 16.5001 25.346 16.5 24.5V18.9103C16.9372 19.4741 17.4958 19.932 18.1343 20.2502C18.7728 20.5684 19.4748 20.7386 20.1882 20.7482C20.9015 20.7578 21.6078 20.6065 22.2546 20.3056C22.9015 20.0047 23.4722 19.5619 23.9244 19.0101C24.3766 18.4584 24.6986 17.8118 24.8666 17.1184C25.0345 16.4251 25.0441 15.7028 24.8945 15.0053C24.7449 14.3077 24.4401 13.6528 24.0027 13.0893C23.5653 12.5257 23.0065 12.068 22.3678 11.7501ZM24 7.50015C23.9989 8.49394 23.6038 9.44674 22.9013 10.1497C22.1988 10.8526 21.2462 11.2483 20.2524 11.2501L20.25 11.25L20.2452 11.2502L16.5 11.25V3.75015H20.25C21.2442 3.75128 22.1974 4.14673 22.9004 4.84975C23.6034 5.55276 23.9989 6.50594 24 7.50015ZM17.3397 12.2501C17.026 12.494 16.744 12.7761 16.5 13.0897V12.25L17.3397 12.2501ZM8.00001 7.50015C8.00113 6.50594 8.39658 5.55276 9.0996 4.84975C9.80262 4.14673 10.7558 3.75128 11.75 3.75015H15.5V11.25H11.75L11.7476 11.2501C10.7538 11.2483 9.80128 10.8526 9.09878 10.1497C8.39627 9.44675 8.00114 8.49395 8.00001 7.50015ZM11.75 28.2499C11.2573 28.2503 10.7693 28.1536 10.314 27.9653C9.85871 27.7771 9.44496 27.5009 9.09642 27.1527C8.74788 26.8044 8.47139 26.3909 8.28275 25.9357C8.0941 25.4805 7.99701 24.9927 7.99701 24.5C7.99701 24.0073 8.0941 23.5194 8.28275 23.0642C8.47139 22.6091 8.74788 22.1955 9.09642 21.8473C9.44496 21.499 9.85871 21.2229 10.314 21.0346C10.7693 20.8463 11.2573 20.7496 11.75 20.75L15.5 20.7499V24.5C15.4989 25.4942 15.1034 26.4473 14.4004 27.1503C13.6974 27.8534 12.7442 28.2488 11.75 28.2499ZM15.5 19.7499L11.75 19.75C10.7558 19.7499 9.80229 19.3549 9.0992 18.6519C8.39611 17.9489 8.00098 16.9955 8.00066 16.0012C8.00035 15.007 8.39488 14.0533 9.09752 13.3499C9.80016 12.6465 10.7534 12.2509 11.7476 12.2501L11.75 12.2502L15.5 12.25V19.7499ZM20.25 19.75C19.2561 19.7497 18.3029 19.3548 17.6 18.6521C16.8971 17.9494 16.5019 16.9964 16.5013 16.0025C16.5006 15.0086 16.8946 14.0551 17.5966 13.3515C18.2986 12.6479 19.2513 12.2517 20.2452 12.2502H20.25L20.2524 12.2501C21.2463 12.2513 22.1991 12.6472 22.9014 13.3505C23.6036 14.0539 23.9979 15.0073 23.9976 16.0012C23.9973 16.9952 23.6024 17.9483 22.8997 18.6513C22.197 19.3542 21.2439 19.7494 20.25 19.75Z" fill="black" stroke="black"/>
</g>
</svg>
