<svg width="32" height="32" viewBox="0 0 32 32" fill="none" xmlns="http://www.w3.org/2000/svg">
<g id="Ei-sc-github 2">
<path id="Vector" fill-rule="evenodd" clip-rule="evenodd" d="M16.0466 2.23999C8.22985 2.23999 1.91998 8.55115 1.91998 16.3695C1.91998 22.5864 5.9696 27.8614 11.6202 29.7454C12.3736 29.8395 12.562 29.4628 12.562 29.086V26.6369C8.60656 27.4846 7.75897 24.7529 7.75897 24.7529C7.09973 23.1516 6.15795 22.6806 6.15795 22.6806C4.83947 21.8328 6.25213 21.8328 6.25213 21.8328C7.66479 21.927 8.4182 23.2458 8.4182 23.2458C9.64251 25.4123 11.7144 24.7529 12.562 24.3762C12.6562 23.4342 13.0329 22.869 13.5038 22.4922C10.3959 22.1154 7.09972 20.8909 7.09972 15.5217C7.09972 14.0145 7.66479 12.6958 8.51238 11.7538C8.32403 11.377 7.85314 9.9641 8.60656 7.98597C8.60656 7.98597 9.83086 7.60919 12.4678 9.39892C13.5979 9.11633 14.8222 8.92794 16.0466 8.92794C17.2709 8.92794 18.4952 9.11633 19.6253 9.39892C22.3564 7.60919 23.4865 7.98597 23.4865 7.98597C24.24 9.9641 23.7691 11.377 23.5807 11.7538C24.5225 12.6958 24.9934 14.0145 24.9934 15.5217C24.9934 20.9851 21.6972 22.1154 18.5893 22.4922C19.0602 22.9632 19.5311 23.811 19.5311 25.1297V28.9918C19.5311 29.3686 19.8136 29.8395 20.4729 29.6512C26.1235 27.7672 30.0789 22.4922 30.0789 16.2753C30.1731 8.55115 23.8633 2.23999 16.0466 2.23999Z" fill="white"/>
</g>
</svg>
