<svg width="230" height="54" viewBox="0 0 230 54" fill="none" xmlns="http://www.w3.org/2000/svg">
<path d="M13.9174 52.1624H0.170898V0.80777H13.9174V7.52903H14.0223C18.1148 2.5931 23.6763 0.0726318 29.3428 0.0726318C36.0587 0.0726318 41.4104 2.5931 44.4535 8.15914H44.6633C48.8607 2.80314 55.2618 0.0726318 62.6072 0.0726318C73.6254 0.0726318 80.656 6.68887 80.656 22.4418V52.1624H66.9096V25.6974C66.9096 17.5059 64.3911 12.3599 57.9901 12.3599C52.2187 12.3599 47.4966 17.2959 47.4966 26.5376V52.1624H33.7501V25.6974C33.7501 17.5059 31.0218 12.3599 24.7257 12.3599C18.5345 12.3599 13.9174 17.2959 13.9174 26.5376V52.1624Z" fill="black"/>
<path fill-rule="evenodd" clip-rule="evenodd" d="M145.913 27.2027C145.913 41.5869 134.227 53.2476 119.81 53.2476C105.394 53.2476 93.7069 41.5869 93.7069 27.2027C93.7069 12.8185 105.394 1.15782 119.81 1.15782C134.227 1.15782 145.913 12.8185 145.913 27.2027ZM128.511 27.2027C128.511 31.9974 124.616 35.8843 119.81 35.8843C115.005 35.8843 111.109 31.9974 111.109 27.2027C111.109 22.408 115.005 18.5211 119.81 18.5211C124.616 18.5211 128.511 22.408 128.511 27.2027Z" fill="black"/>
<path d="M167.666 9.83944C167.666 14.6342 163.771 18.5211 158.965 18.5211C154.16 18.5211 150.264 14.6342 150.264 9.83944C150.264 5.04472 154.16 1.15782 158.965 1.15782C163.771 1.15782 167.666 5.04472 167.666 9.83944Z" fill="black"/>
<path d="M194.478 52.1624H180.719V0.80777H194.478V7.424H194.688C198.784 2.5931 204.666 0.0726318 211.072 0.0726318C221.996 0.0726318 229.663 5.95373 229.663 21.7067V52.1624H215.904V25.1723C215.904 15.4055 212.438 12.3599 206.031 12.3599C199.099 12.3599 194.478 17.1908 194.478 26.4326V52.1624Z" fill="black"/>
</svg>
