<svg width="24" height="24" viewBox="0 0 24 24" fill="none" xmlns="http://www.w3.org/2000/svg">
<path fill-rule="evenodd" clip-rule="evenodd" d="M9.06951 14.4C10.2036 14.4 11.123 13.4598 11.123 12.3C11.123 11.1402 10.2036 10.2 9.06951 10.2C7.93541 10.2 7.01605 11.1402 7.01605 12.3C7.01605 13.4598 7.93541 14.4 9.06951 14.4ZM9.06951 18.6C12.4718 18.6 15.2299 15.7794 15.2299 12.3C15.2299 8.82061 12.4718 6 9.06951 6C5.66722 6 2.90912 8.82061 2.90912 12.3C2.90912 15.7794 5.66722 18.6 9.06951 18.6Z" fill="black"/>
<path d="M20.3636 8.1C20.3636 9.2598 19.4443 10.2 18.3102 10.2C17.1761 10.2 16.2567 9.2598 16.2567 8.1C16.2567 6.9402 17.1761 6 18.3102 6C19.4443 6 20.3636 6.9402 20.3636 8.1Z" fill="black"/>
</svg>
